<?xml version="1.0" encoding="utf-8"?>
<COLLADA xmlns="http://www.collada.org/2005/11/COLLADASchema" version="1.4.1" xmlns:xsi="http://www.w3.org/2001/XMLSchema-instance">
  <asset>
    <contributor>
      <author>Blender User</author>
      <authoring_tool>Blender 2.79.0 commit date:2018-03-22, commit time:14:10, hash:f4dc9f9d68b</authoring_tool>
    </contributor>
    <created>2019-04-26T00:41:30</created>
    <modified>2019-04-26T00:41:30</modified>
    <unit name="meter" meter="1"/>
    <up_axis>Z_UP</up_axis>
  </asset>
  <library_lights>
    <light id="Point-light" name="Point">
      <technique_common>
        <point>
          <color sid="color">1 1 1</color>
          <constant_attenuation>1</constant_attenuation>
          <linear_attenuation>0</linear_attenuation>
          <quadratic_attenuation>0.001599967</quadratic_attenuation>
        </point>
      </technique_common>
      <extra>
        <technique profile="blender">
          <type sid="type" type="int">0</type>
          <flag sid="flag" type="int">0</flag>
          <mode sid="mode" type="int">1</mode>
          <gamma sid="blender_gamma" type="float">1</gamma>
          <red sid="red" type="float">1</red>
          <green sid="green" type="float">1</green>
          <blue sid="blue" type="float">1</blue>
          <shadow_r sid="blender_shadow_r" type="float">0</shadow_r>
          <shadow_g sid="blender_shadow_g" type="float">0</shadow_g>
          <shadow_b sid="blender_shadow_b" type="float">0</shadow_b>
          <energy sid="blender_energy" type="float">1</energy>
          <dist sid="blender_dist" type="float">25</dist>
          <spotsize sid="spotsize" type="float">45</spotsize>
          <spotblend sid="spotblend" type="float">0.15</spotblend>
          <halo_intensity sid="blnder_halo_intensity" type="float">1</halo_intensity>
          <att1 sid="att1" type="float">0</att1>
          <att2 sid="att2" type="float">1</att2>
          <falloff_type sid="falloff_type" type="int">2</falloff_type>
          <clipsta sid="clipsta" type="float">0.5</clipsta>
          <clipend sid="clipend" type="float">40</clipend>
          <bias sid="bias" type="float">1</bias>
          <soft sid="soft" type="float">3</soft>
          <compressthresh sid="compressthresh" type="float">0.04999995</compressthresh>
          <bufsize sid="bufsize" type="int">512</bufsize>
          <samp sid="samp" type="int">3</samp>
          <buffers sid="buffers" type="int">1</buffers>
          <filtertype sid="filtertype" type="int">0</filtertype>
          <bufflag sid="bufflag" type="int">0</bufflag>
          <buftype sid="buftype" type="int">2</buftype>
          <ray_samp sid="ray_samp" type="int">1</ray_samp>
          <ray_sampy sid="ray_sampy" type="int">1</ray_sampy>
          <ray_sampz sid="ray_sampz" type="int">1</ray_sampz>
          <ray_samp_type sid="ray_samp_type" type="int">0</ray_samp_type>
          <area_shape sid="area_shape" type="int">0</area_shape>
          <area_size sid="area_size" type="float">0.1</area_size>
          <area_sizey sid="area_sizey" type="float">0.1</area_sizey>
          <area_sizez sid="area_sizez" type="float">0.1</area_sizez>
          <adapt_thresh sid="adapt_thresh" type="float">0.000999987</adapt_thresh>
          <ray_samp_method sid="ray_samp_method" type="int">1</ray_samp_method>
          <shadhalostep sid="shadhalostep" type="int">0</shadhalostep>
          <sun_effect_type sid="sun_effect_type" type="int">0</sun_effect_type>
          <skyblendtype sid="skyblendtype" type="int">1</skyblendtype>
          <horizon_brightness sid="horizon_brightness" type="float">1</horizon_brightness>
          <spread sid="spread" type="float">1</spread>
          <sun_brightness sid="sun_brightness" type="float">1</sun_brightness>
          <sun_size sid="sun_size" type="float">1</sun_size>
          <backscattered_light sid="backscattered_light" type="float">1</backscattered_light>
          <sun_intensity sid="sun_intensity" type="float">1</sun_intensity>
          <atm_turbidity sid="atm_turbidity" type="float">2</atm_turbidity>
          <atm_extinction_factor sid="atm_extinction_factor" type="float">1</atm_extinction_factor>
          <atm_distance_factor sid="atm_distance_factor" type="float">1</atm_distance_factor>
          <skyblendfac sid="skyblendfac" type="float">1</skyblendfac>
          <sky_exposure sid="sky_exposure" type="float">1</sky_exposure>
          <sky_colorspace sid="sky_colorspace" type="int">2</sky_colorspace>
        </technique>
      </extra>
    </light>
    <light id="Point_001-light" name="Point.001">
      <technique_common>
        <point>
          <color sid="color">1 1 1</color>
          <constant_attenuation>1</constant_attenuation>
          <linear_attenuation>0</linear_attenuation>
          <quadratic_attenuation>0.001599967</quadratic_attenuation>
        </point>
      </technique_common>
      <extra>
        <technique profile="blender">
          <type sid="type" type="int">0</type>
          <flag sid="flag" type="int">0</flag>
          <mode sid="mode" type="int">1</mode>
          <gamma sid="blender_gamma" type="float">1</gamma>
          <red sid="red" type="float">1</red>
          <green sid="green" type="float">1</green>
          <blue sid="blue" type="float">1</blue>
          <shadow_r sid="blender_shadow_r" type="float">0</shadow_r>
          <shadow_g sid="blender_shadow_g" type="float">0</shadow_g>
          <shadow_b sid="blender_shadow_b" type="float">0</shadow_b>
          <energy sid="blender_energy" type="float">1</energy>
          <dist sid="blender_dist" type="float">25</dist>
          <spotsize sid="spotsize" type="float">45</spotsize>
          <spotblend sid="spotblend" type="float">0.15</spotblend>
          <halo_intensity sid="blnder_halo_intensity" type="float">1</halo_intensity>
          <att1 sid="att1" type="float">0</att1>
          <att2 sid="att2" type="float">1</att2>
          <falloff_type sid="falloff_type" type="int">2</falloff_type>
          <clipsta sid="clipsta" type="float">0.5</clipsta>
          <clipend sid="clipend" type="float">40</clipend>
          <bias sid="bias" type="float">1</bias>
          <soft sid="soft" type="float">3</soft>
          <compressthresh sid="compressthresh" type="float">0.04999995</compressthresh>
          <bufsize sid="bufsize" type="int">512</bufsize>
          <samp sid="samp" type="int">3</samp>
          <buffers sid="buffers" type="int">1</buffers>
          <filtertype sid="filtertype" type="int">0</filtertype>
          <bufflag sid="bufflag" type="int">0</bufflag>
          <buftype sid="buftype" type="int">2</buftype>
          <ray_samp sid="ray_samp" type="int">1</ray_samp>
          <ray_sampy sid="ray_sampy" type="int">1</ray_sampy>
          <ray_sampz sid="ray_sampz" type="int">1</ray_sampz>
          <ray_samp_type sid="ray_samp_type" type="int">0</ray_samp_type>
          <area_shape sid="area_shape" type="int">0</area_shape>
          <area_size sid="area_size" type="float">0.1</area_size>
          <area_sizey sid="area_sizey" type="float">0.1</area_sizey>
          <area_sizez sid="area_sizez" type="float">0.1</area_sizez>
          <adapt_thresh sid="adapt_thresh" type="float">0.000999987</adapt_thresh>
          <ray_samp_method sid="ray_samp_method" type="int">1</ray_samp_method>
          <shadhalostep sid="shadhalostep" type="int">0</shadhalostep>
          <sun_effect_type sid="sun_effect_type" type="int">0</sun_effect_type>
          <skyblendtype sid="skyblendtype" type="int">1</skyblendtype>
          <horizon_brightness sid="horizon_brightness" type="float">1</horizon_brightness>
          <spread sid="spread" type="float">1</spread>
          <sun_brightness sid="sun_brightness" type="float">1</sun_brightness>
          <sun_size sid="sun_size" type="float">1</sun_size>
          <backscattered_light sid="backscattered_light" type="float">1</backscattered_light>
          <sun_intensity sid="sun_intensity" type="float">1</sun_intensity>
          <atm_turbidity sid="atm_turbidity" type="float">2</atm_turbidity>
          <atm_extinction_factor sid="atm_extinction_factor" type="float">1</atm_extinction_factor>
          <atm_distance_factor sid="atm_distance_factor" type="float">1</atm_distance_factor>
          <skyblendfac sid="skyblendfac" type="float">1</skyblendfac>
          <sky_exposure sid="sky_exposure" type="float">1</sky_exposure>
          <sky_colorspace sid="sky_colorspace" type="int">2</sky_colorspace>
        </technique>
      </extra>
    </light>
    <light id="Point_002-light" name="Point.002">
      <technique_common>
        <point>
          <color sid="color">1 1 1</color>
          <constant_attenuation>1</constant_attenuation>
          <linear_attenuation>0</linear_attenuation>
          <quadratic_attenuation>0.001599967</quadratic_attenuation>
        </point>
      </technique_common>
      <extra>
        <technique profile="blender">
          <type sid="type" type="int">0</type>
          <flag sid="flag" type="int">0</flag>
          <mode sid="mode" type="int">1</mode>
          <gamma sid="blender_gamma" type="float">1</gamma>
          <red sid="red" type="float">1</red>
          <green sid="green" type="float">1</green>
          <blue sid="blue" type="float">1</blue>
          <shadow_r sid="blender_shadow_r" type="float">0</shadow_r>
          <shadow_g sid="blender_shadow_g" type="float">0</shadow_g>
          <shadow_b sid="blender_shadow_b" type="float">0</shadow_b>
          <energy sid="blender_energy" type="float">1</energy>
          <dist sid="blender_dist" type="float">25</dist>
          <spotsize sid="spotsize" type="float">45</spotsize>
          <spotblend sid="spotblend" type="float">0.15</spotblend>
          <halo_intensity sid="blnder_halo_intensity" type="float">1</halo_intensity>
          <att1 sid="att1" type="float">0</att1>
          <att2 sid="att2" type="float">1</att2>
          <falloff_type sid="falloff_type" type="int">2</falloff_type>
          <clipsta sid="clipsta" type="float">0.5</clipsta>
          <clipend sid="clipend" type="float">40</clipend>
          <bias sid="bias" type="float">1</bias>
          <soft sid="soft" type="float">3</soft>
          <compressthresh sid="compressthresh" type="float">0.04999995</compressthresh>
          <bufsize sid="bufsize" type="int">512</bufsize>
          <samp sid="samp" type="int">3</samp>
          <buffers sid="buffers" type="int">1</buffers>
          <filtertype sid="filtertype" type="int">0</filtertype>
          <bufflag sid="bufflag" type="int">0</bufflag>
          <buftype sid="buftype" type="int">2</buftype>
          <ray_samp sid="ray_samp" type="int">1</ray_samp>
          <ray_sampy sid="ray_sampy" type="int">1</ray_sampy>
          <ray_sampz sid="ray_sampz" type="int">1</ray_sampz>
          <ray_samp_type sid="ray_samp_type" type="int">0</ray_samp_type>
          <area_shape sid="area_shape" type="int">0</area_shape>
          <area_size sid="area_size" type="float">0.1</area_size>
          <area_sizey sid="area_sizey" type="float">0.1</area_sizey>
          <area_sizez sid="area_sizez" type="float">0.1</area_sizez>
          <adapt_thresh sid="adapt_thresh" type="float">0.000999987</adapt_thresh>
          <ray_samp_method sid="ray_samp_method" type="int">1</ray_samp_method>
          <shadhalostep sid="shadhalostep" type="int">0</shadhalostep>
          <sun_effect_type sid="sun_effect_type" type="int">0</sun_effect_type>
          <skyblendtype sid="skyblendtype" type="int">1</skyblendtype>
          <horizon_brightness sid="horizon_brightness" type="float">1</horizon_brightness>
          <spread sid="spread" type="float">1</spread>
          <sun_brightness sid="sun_brightness" type="float">1</sun_brightness>
          <sun_size sid="sun_size" type="float">1</sun_size>
          <backscattered_light sid="backscattered_light" type="float">1</backscattered_light>
          <sun_intensity sid="sun_intensity" type="float">1</sun_intensity>
          <atm_turbidity sid="atm_turbidity" type="float">2</atm_turbidity>
          <atm_extinction_factor sid="atm_extinction_factor" type="float">1</atm_extinction_factor>
          <atm_distance_factor sid="atm_distance_factor" type="float">1</atm_distance_factor>
          <skyblendfac sid="skyblendfac" type="float">1</skyblendfac>
          <sky_exposure sid="sky_exposure" type="float">1</sky_exposure>
          <sky_colorspace sid="sky_colorspace" type="int">2</sky_colorspace>
        </technique>
      </extra>
    </light>
    <light id="Point_003-light" name="Point.003">
      <technique_common>
        <point>
          <color sid="color">1 1 1</color>
          <constant_attenuation>1</constant_attenuation>
          <linear_attenuation>0</linear_attenuation>
          <quadratic_attenuation>0.001599967</quadratic_attenuation>
        </point>
      </technique_common>
      <extra>
        <technique profile="blender">
          <type sid="type" type="int">0</type>
          <flag sid="flag" type="int">0</flag>
          <mode sid="mode" type="int">1</mode>
          <gamma sid="blender_gamma" type="float">1</gamma>
          <red sid="red" type="float">1</red>
          <green sid="green" type="float">1</green>
          <blue sid="blue" type="float">1</blue>
          <shadow_r sid="blender_shadow_r" type="float">0</shadow_r>
          <shadow_g sid="blender_shadow_g" type="float">0</shadow_g>
          <shadow_b sid="blender_shadow_b" type="float">0</shadow_b>
          <energy sid="blender_energy" type="float">1</energy>
          <dist sid="blender_dist" type="float">25</dist>
          <spotsize sid="spotsize" type="float">45</spotsize>
          <spotblend sid="spotblend" type="float">0.15</spotblend>
          <halo_intensity sid="blnder_halo_intensity" type="float">1</halo_intensity>
          <att1 sid="att1" type="float">0</att1>
          <att2 sid="att2" type="float">1</att2>
          <falloff_type sid="falloff_type" type="int">2</falloff_type>
          <clipsta sid="clipsta" type="float">0.5</clipsta>
          <clipend sid="clipend" type="float">40</clipend>
          <bias sid="bias" type="float">1</bias>
          <soft sid="soft" type="float">3</soft>
          <compressthresh sid="compressthresh" type="float">0.04999995</compressthresh>
          <bufsize sid="bufsize" type="int">512</bufsize>
          <samp sid="samp" type="int">3</samp>
          <buffers sid="buffers" type="int">1</buffers>
          <filtertype sid="filtertype" type="int">0</filtertype>
          <bufflag sid="bufflag" type="int">0</bufflag>
          <buftype sid="buftype" type="int">2</buftype>
          <ray_samp sid="ray_samp" type="int">1</ray_samp>
          <ray_sampy sid="ray_sampy" type="int">1</ray_sampy>
          <ray_sampz sid="ray_sampz" type="int">1</ray_sampz>
          <ray_samp_type sid="ray_samp_type" type="int">0</ray_samp_type>
          <area_shape sid="area_shape" type="int">0</area_shape>
          <area_size sid="area_size" type="float">0.1</area_size>
          <area_sizey sid="area_sizey" type="float">0.1</area_sizey>
          <area_sizez sid="area_sizez" type="float">0.1</area_sizez>
          <adapt_thresh sid="adapt_thresh" type="float">0.000999987</adapt_thresh>
          <ray_samp_method sid="ray_samp_method" type="int">1</ray_samp_method>
          <shadhalostep sid="shadhalostep" type="int">0</shadhalostep>
          <sun_effect_type sid="sun_effect_type" type="int">0</sun_effect_type>
          <skyblendtype sid="skyblendtype" type="int">1</skyblendtype>
          <horizon_brightness sid="horizon_brightness" type="float">1</horizon_brightness>
          <spread sid="spread" type="float">1</spread>
          <sun_brightness sid="sun_brightness" type="float">1</sun_brightness>
          <sun_size sid="sun_size" type="float">1</sun_size>
          <backscattered_light sid="backscattered_light" type="float">1</backscattered_light>
          <sun_intensity sid="sun_intensity" type="float">1</sun_intensity>
          <atm_turbidity sid="atm_turbidity" type="float">2</atm_turbidity>
          <atm_extinction_factor sid="atm_extinction_factor" type="float">1</atm_extinction_factor>
          <atm_distance_factor sid="atm_distance_factor" type="float">1</atm_distance_factor>
          <skyblendfac sid="skyblendfac" type="float">1</skyblendfac>
          <sky_exposure sid="sky_exposure" type="float">1</sky_exposure>
          <sky_colorspace sid="sky_colorspace" type="int">2</sky_colorspace>
        </technique>
      </extra>
    </light>
    <light id="Point_004-light" name="Point.004">
      <technique_common>
        <point>
          <color sid="color">1 1 1</color>
          <constant_attenuation>1</constant_attenuation>
          <linear_attenuation>0</linear_attenuation>
          <quadratic_attenuation>0.001599967</quadratic_attenuation>
        </point>
      </technique_common>
      <extra>
        <technique profile="blender">
          <type sid="type" type="int">0</type>
          <flag sid="flag" type="int">0</flag>
          <mode sid="mode" type="int">1</mode>
          <gamma sid="blender_gamma" type="float">1</gamma>
          <red sid="red" type="float">1</red>
          <green sid="green" type="float">1</green>
          <blue sid="blue" type="float">1</blue>
          <shadow_r sid="blender_shadow_r" type="float">0</shadow_r>
          <shadow_g sid="blender_shadow_g" type="float">0</shadow_g>
          <shadow_b sid="blender_shadow_b" type="float">0</shadow_b>
          <energy sid="blender_energy" type="float">1</energy>
          <dist sid="blender_dist" type="float">25</dist>
          <spotsize sid="spotsize" type="float">45</spotsize>
          <spotblend sid="spotblend" type="float">0.15</spotblend>
          <halo_intensity sid="blnder_halo_intensity" type="float">1</halo_intensity>
          <att1 sid="att1" type="float">0</att1>
          <att2 sid="att2" type="float">1</att2>
          <falloff_type sid="falloff_type" type="int">2</falloff_type>
          <clipsta sid="clipsta" type="float">0.5</clipsta>
          <clipend sid="clipend" type="float">40</clipend>
          <bias sid="bias" type="float">1</bias>
          <soft sid="soft" type="float">3</soft>
          <compressthresh sid="compressthresh" type="float">0.04999995</compressthresh>
          <bufsize sid="bufsize" type="int">512</bufsize>
          <samp sid="samp" type="int">3</samp>
          <buffers sid="buffers" type="int">1</buffers>
          <filtertype sid="filtertype" type="int">0</filtertype>
          <bufflag sid="bufflag" type="int">0</bufflag>
          <buftype sid="buftype" type="int">2</buftype>
          <ray_samp sid="ray_samp" type="int">1</ray_samp>
          <ray_sampy sid="ray_sampy" type="int">1</ray_sampy>
          <ray_sampz sid="ray_sampz" type="int">1</ray_sampz>
          <ray_samp_type sid="ray_samp_type" type="int">0</ray_samp_type>
          <area_shape sid="area_shape" type="int">0</area_shape>
          <area_size sid="area_size" type="float">0.1</area_size>
          <area_sizey sid="area_sizey" type="float">0.1</area_sizey>
          <area_sizez sid="area_sizez" type="float">0.1</area_sizez>
          <adapt_thresh sid="adapt_thresh" type="float">0.000999987</adapt_thresh>
          <ray_samp_method sid="ray_samp_method" type="int">1</ray_samp_method>
          <shadhalostep sid="shadhalostep" type="int">0</shadhalostep>
          <sun_effect_type sid="sun_effect_type" type="int">0</sun_effect_type>
          <skyblendtype sid="skyblendtype" type="int">1</skyblendtype>
          <horizon_brightness sid="horizon_brightness" type="float">1</horizon_brightness>
          <spread sid="spread" type="float">1</spread>
          <sun_brightness sid="sun_brightness" type="float">1</sun_brightness>
          <sun_size sid="sun_size" type="float">1</sun_size>
          <backscattered_light sid="backscattered_light" type="float">1</backscattered_light>
          <sun_intensity sid="sun_intensity" type="float">1</sun_intensity>
          <atm_turbidity sid="atm_turbidity" type="float">2</atm_turbidity>
          <atm_extinction_factor sid="atm_extinction_factor" type="float">1</atm_extinction_factor>
          <atm_distance_factor sid="atm_distance_factor" type="float">1</atm_distance_factor>
          <skyblendfac sid="skyblendfac" type="float">1</skyblendfac>
          <sky_exposure sid="sky_exposure" type="float">1</sky_exposure>
          <sky_colorspace sid="sky_colorspace" type="int">2</sky_colorspace>
        </technique>
      </extra>
    </light>
  </library_lights>
  <library_images>
    <image id="fondo-pared-cemento-gris_1372-435_jpg" name="fondo-pared-cemento-gris_1372-435_jpg">
      <init_from>fondo-pared-cemento-gris_1372-435.jpg</init_from>
    </image>
    <image id="textura-pared-ladrillos-erosionados_1154-734__1__jpg" name="textura-pared-ladrillos-erosionados_1154-734__1__jpg">
      <init_from>textura-pared-ladrillos-erosionados_1154-734%20(1).jpg</init_from>
    </image>
  </library_images>
  <library_effects>
    <effect id="Material_001-effect">
      <profile_COMMON>
        <newparam sid="fondo-pared-cemento-gris_1372-435_jpg-surface">
          <surface type="2D">
            <init_from>fondo-pared-cemento-gris_1372-435_jpg</init_from>
          </surface>
        </newparam>
        <newparam sid="fondo-pared-cemento-gris_1372-435_jpg-sampler">
          <sampler2D>
            <source>fondo-pared-cemento-gris_1372-435_jpg-surface</source>
          </sampler2D>
        </newparam>
        <technique sid="common">
          <lambert>
            <emission>
              <color sid="emission">0 0 0 1</color>
            </emission>
            <ambient>
              <color sid="ambient">0 0 0 1</color>
            </ambient>
            <diffuse>
              <texture texture="fondo-pared-cemento-gris_1372-435_jpg-sampler"/>
            </diffuse>
            <index_of_refraction>
              <float sid="index_of_refraction">1</float>
            </index_of_refraction>
          </lambert>
        </technique>
      </profile_COMMON>
    </effect>
    <effect id="Material_002-effect">
      <profile_COMMON>
        <newparam sid="textura-pared-ladrillos-erosionados_1154-734__1__jpg-surface">
          <surface type="2D">
            <init_from>textura-pared-ladrillos-erosionados_1154-734__1__jpg</init_from>
          </surface>
        </newparam>
        <newparam sid="textura-pared-ladrillos-erosionados_1154-734__1__jpg-sampler">
          <sampler2D>
            <source>textura-pared-ladrillos-erosionados_1154-734__1__jpg-surface</source>
          </sampler2D>
        </newparam>
        <technique sid="common">
          <lambert>
            <emission>
              <color sid="emission">0 0 0 1</color>
            </emission>
            <ambient>
              <color sid="ambient">0 0 0 1</color>
            </ambient>
            <diffuse>
              <texture texture="textura-pared-ladrillos-erosionados_1154-734__1__jpg-sampler"/>
            </diffuse>
            <index_of_refraction>
              <float sid="index_of_refraction">1</float>
            </index_of_refraction>
          </lambert>
        </technique>
      </profile_COMMON>
    </effect>
  </library_effects>
  <library_materials>
    <material id="Material_001-material" name="Material_001">
      <instance_effect url="#Material_001-effect"/>
    </material>
    <material id="Material_002-material" name="Material_002">
      <instance_effect url="#Material_002-effect"/>
    </material>
  </library_materials>
  <library_geometries>
    <geometry id="Plane_001-mesh" name="Plane.001">
      <mesh>
        <source id="Plane_001-mesh-positions">
          <float_array id="Plane_001-mesh-positions-array" count="234">1.845093 -4.643761 0.4680204 1.879149 -4.643761 0.1754209 1.845093 1 0.4680204 1.879149 1 0.1754209 1.798714 -4.643761 0.5316646 1.798714 1 0.5316646 1.710225 -4.643761 0.5473435 1.710225 1 0.5473435 1.375108 -4.643761 0.5153825 1.375108 1 0.5153825 0.6622371 -4.643761 0.4638032 0.6622371 1 0.4638032 0.6018399 -4.643761 0.4905694 0.6018399 1 0.4905694 0.5499505 -4.643761 0.5340045 0.5499505 1 0.5340045 0.5499505 -4.643761 0.5340045 0.5499505 1 0.5340045 0.2830801 -4.643761 2.219026 0.2830801 1 2.219026 0.2148308 -4.643761 2.307333 0.2148308 1 2.307333 0.09740757 -4.643761 2.346839 0.09740757 1 2.346839 -0.006945967 -4.643761 2.367452 -0.006945967 1 2.367452 -1.845093 -4.643761 0.4680204 -1.879149 -4.643761 0.1754209 -1.845093 1 0.4680204 -1.879149 1 0.1754209 -1.798714 -4.643761 0.5316646 -1.798714 1 0.5316646 -1.710225 -4.643761 0.5473435 -1.710225 1 0.5473435 -1.375108 -4.643761 0.5153825 -1.375108 1 0.5153825 -0.6622371 -4.643761 0.4638032 -0.6622371 1 0.4638032 -0.6018399 -4.643761 0.4905694 -0.6018399 1 0.4905694 -0.5499505 -4.643761 0.5340045 -0.5499505 1 0.5340045 -0.5499505 -4.643761 0.5340045 -0.5499505 1 0.5340045 -0.2830801 -4.643761 2.219026 -0.2830801 1 2.219026 -0.2148308 -4.643761 2.307333 -0.2148308 1 2.307333 -0.09740757 -4.643761 2.346839 -0.09740757 1 2.346839 1.776962 -4.490309 0.1754209 -1.776962 0.8465481 0.1754209 1.776962 0.8465481 0.1754209 -1.776962 -4.490309 0.09288358 -1.776962 -4.490309 0.1754209 -1.776962 0.8465481 0.09288358 1.776962 0.8465481 0.09288358 1.776962 -4.490309 0.09288358 -1.638372 -4.282191 0.09288358 -1.638372 0.6384297 0.09288358 1.638372 0.6384297 0.09288358 1.638372 -4.282191 0.09288358 -1.638372 -4.282191 0.1768171 -1.638372 0.6384297 0.1768171 1.638372 0.6384297 0.1768171 1.638372 -4.282191 0.1768171 1.845093 -4.643761 0.4680204 1.879149 -4.643761 0.1754209 1.798714 -4.643761 0.5316646 1.710225 -4.643761 0.5473435 1.375108 -4.643761 0.5153825 0.6622371 -4.643761 0.4638032 -1.845093 -4.643761 0.4680204 -1.879149 -4.643761 0.1754209 -1.798714 -4.643761 0.5316646 -1.710225 -4.643761 0.5473435 -1.375108 -4.643761 0.5153825 -0.6622371 -4.643761 0.4638032</float_array>
          <technique_common>
            <accessor source="#Plane_001-mesh-positions-array" count="78" stride="3">
              <param name="X" type="float"/>
              <param name="Y" type="float"/>
              <param name="Z" type="float"/>
            </accessor>
          </technique_common>
        </source>
        <source id="Plane_001-mesh-normals">
          <float_array id="Plane_001-mesh-normals-array" count="174">0.7468619 0 -0.6649793 0.7044251 0.6541286 0.2755013 0.9313157 0 0.3642129 0.529656 0 0.8482125 0.4105111 0.6318961 0.65741 0.04010206 0 0.9991957 0.02948176 0.6779891 0.7344806 -0.08353036 0 0.9965052 -0.05884039 0.7096862 0.7020565 0.1700227 -0.135597 0.9760665 0.110328 0.7659176 0.6334019 0.3556687 -0.7398727 0.5710414 0.3556687 0.7398727 0.5710414 0.2630122 -0.6377238 0.7239704 0.341449 0 0.9399004 0.5589015 -0.5093075 0.6543967 0.3418744 0.8502303 0.4002879 0.6934677 -0.6553487 0.2993673 0.6934835 0.6553348 0.299361 0.4420683 -0.6473088 0.6209404 0.4420683 0.6473088 0.6209404 0.1852229 -0.6928236 0.6969132 0.1852229 0.6928236 0.6969132 -0.01083415 -0.6631439 0.7484135 -0.7044251 0.6541286 0.2755013 -0.7468619 0 -0.6649793 -0.9313157 0 0.3642129 -0.529656 0 0.8482125 -0.04010206 0 0.9991957 -0.4105111 0.6318961 0.65741 0.08353036 0 0.9965052 -0.02948176 0.6779891 0.7344806 -0.1700227 -0.135597 0.9760665 0.05884039 0.7096862 0.7020565 -0.3556749 -0.7398856 0.5710209 -0.110328 0.7659176 0.6334019 -0.341449 0 0.9399004 -0.3556687 0.7398727 0.5710414 -0.3418744 -0.8502303 0.4002879 -0.6934835 -0.6553348 0.299361 -0.3418744 0.8502303 0.4002879 -0.4420683 -0.6473088 0.6209404 -0.6934835 0.6553348 0.299361 -0.1945 -0.695964 0.6912336 -0.4420683 0.6473088 0.6209404 -0.1945 0.695964 0.6912336 -0.6128818 0.5714982 -0.545679 -0.301503 -0.301503 -0.9045396 0.301503 0.301503 -0.9045396 -0.5773503 0.5773503 -0.5773503 -0.301503 0.301503 -0.9045396 0.6128818 0.5714982 -0.545679 0.301503 -0.301503 -0.9045396 -0.5773503 -0.5773503 -0.5773503 0.5773503 -0.5773503 -0.5773503 0.5773503 0.5773503 -0.5773503 0 -1 0 -0.01083415 0.6631439 0.7484135</float_array>
          <technique_common>
            <accessor source="#Plane_001-mesh-normals-array" count="58" stride="3">
              <param name="X" type="float"/>
              <param name="Y" type="float"/>
              <param name="Z" type="float"/>
            </accessor>
          </technique_common>
        </source>
        <source id="Plane_001-mesh-map-0">
          <float_array id="Plane_001-mesh-map-0-array" count="744">8.29588e-5 8.39383e-5 0.9996719 0.05225688 8.29588e-5 0.05225729 0.9996719 0.05225688 1.37911e-4 0.06970423 8.29588e-5 0.05225729 0.9997269 0.06970381 1.63523e-4 0.0871517 1.37911e-4 0.06970423 0.9997525 0.08715128 1.63523e-4 0.1467759 1.63523e-4 0.0871517 0.9997526 0.1467747 1.63714e-4 0.2733648 1.63523e-4 0.1467759 0.9997526 0.273364 2.47337e-4 0.2908113 1.63714e-4 0.2733648 0.9998364 0.2908105 3.27711e-4 0.3082577 2.47337e-4 0.2908113 0.9999169 0.308257 3.27806e-4 0.3257029 3.27711e-4 0.3082577 0.9999169 0.3257022 3.27997e-4 0.6278635 3.27806e-4 0.3257029 0.999917 0.627863 3.27997e-4 0.6476293 3.27997e-4 0.6278635 0.999917 0.6476302 3.28093e-4 0.6695697 3.27997e-4 0.6476293 0.9999169 0.6695731 3.27997e-4 0.6884092 3.28093e-4 0.6695697 0.6346538 5.35395e-4 0.6868164 0.9999172 0.6346533 0.9999172 0.6172102 0.9998561 0.6346538 5.35395e-4 0.6346533 0.9999172 0.5997664 0.9998294 0.6172108 4.743e-4 0.6172102 0.9998561 0.5401553 0.9998294 0.599767 4.47571e-4 0.5997664 0.9998294 0.4135922 0.9998294 0.5401551 4.47571e-4 0.5401553 0.9998294 0.3961499 0.9997291 0.4135924 4.47523e-4 0.4135922 0.9998294 0.3787076 0.9996337 0.3961502 3.47337e-4 0.3961499 0.9997291 0.3612713 0.9993294 0.3787078 2.52115e-4 0.3787076 0.9996337 0.05921918 0.9993301 0.3612689 9.995e-5 0.3612713 0.9993294 0.03945916 0.9993303 0.05921697 1.00666e-4 0.05921918 0.9993301 0.01752412 0.9993303 0.03945845 1.00666e-4 0.03945916 0.9993303 8.28625e-5 0.9993124 0.01752585 1.00618e-4 0.01752412 0.9993303 0.1889395 0.4879022 0.1468415 0.5168815 0.1026707 0.5168815 0.864049 0.04177165 0.7450461 0.04136765 0.8692496 0.03710597 0.8692496 0.03710597 0.7387181 0.03881919 0.8753871 0.03413021 0.1555141 0.01634597 0.1740335 0.002517223 0.1939942 0.001748085 0.846592 0.1587672 2.008134 0.5519672 1.037976 0.1698377 0.9825346 8.32743e-5 0.02487093 0.01703798 8.32743e-5 8.32743e-5 0.9751291 0.6767046 0.9433009 0.03541028 0.9568039 0.01593172 0.9999167 0.6936593 0.9568039 0.01593172 0.9825346 8.32743e-5 0.01746523 0.6936596 0.9751291 0.6767046 0.9999167 0.6936593 8.32743e-5 8.32743e-5 0.04319614 0.6778111 0.01746523 0.6936596 0.04392415 0.03142118 0.09714382 0.6344531 0.05669897 0.6583325 0.9568039 0.01593172 0.04392415 0.03142118 0.02487093 0.01703798 0.04319614 0.6778111 0.9560759 0.6623215 0.9751291 0.6767046 0.02487093 0.01703798 0.05669897 0.6583325 0.04319614 0.6778111 0.09714382 0.6344531 0.9030323 0.6209294 0.9210919 0.6338284 0.9560759 0.6623215 0.902856 0.05928975 0.9433009 0.03541028 0.05669897 0.6583325 0.9210919 0.6338284 0.9560759 0.6623215 0.9433009 0.03541028 0.07890802 0.05991417 0.04392415 0.03142118 0.1098557 0.6170378 0.8901441 0.07670503 0.9030323 0.6209294 0.902856 0.05928975 0.09696775 0.07281321 0.07890802 0.05991417 0.07890802 0.05991417 0.1098557 0.6170378 0.09714382 0.6344531 0.9210919 0.6338284 0.8901441 0.07670503 0.902856 0.05928975 3.98261e-5 3.98261e-5 0.8754058 0.05118149 0.4215734 0.1918277 8.29588e-5 8.39383e-5 0.9996719 8.29588e-5 0.9996719 0.05225688 0.9996719 0.05225688 0.9997269 0.06970381 1.37911e-4 0.06970423 0.9997269 0.06970381 0.9997525 0.08715128 1.63523e-4 0.0871517 0.9997525 0.08715128 0.9997526 0.1467747 1.63523e-4 0.1467759 0.9997526 0.1467747 0.9997526 0.273364 1.63714e-4 0.2733648 0.9997526 0.273364 0.9998364 0.2908105 2.47337e-4 0.2908113 0.9998364 0.2908105 0.9999169 0.308257 3.27711e-4 0.3082577 0.9999169 0.308257 0.9999169 0.3257022 3.27806e-4 0.3257029 0.9999169 0.3257022 0.999917 0.627863 3.27997e-4 0.6278635 0.999917 0.627863 0.999917 0.6476302 3.27997e-4 0.6476293 0.999917 0.6476302 0.9999169 0.6695731 3.28093e-4 0.6695697 0.9999169 0.6695731 0.9999169 0.6884127 3.27997e-4 0.6884092 0.6346538 5.35395e-4 0.6868164 5.35347e-4 0.6868164 0.9999172 0.6172102 0.9998561 0.6172108 4.743e-4 0.6346538 5.35395e-4 0.5997664 0.9998294 0.599767 4.47571e-4 0.6172108 4.743e-4 0.5401553 0.9998294 0.5401551 4.47571e-4 0.599767 4.47571e-4 0.4135922 0.9998294 0.4135924 4.47523e-4 0.5401551 4.47571e-4 0.3961499 0.9997291 0.3961502 3.47337e-4 0.4135924 4.47523e-4 0.3787076 0.9996337 0.3787078 2.52115e-4 0.3961502 3.47337e-4 0.3612713 0.9993294 0.3612689 9.995e-5 0.3787078 2.52115e-4 0.05921918 0.9993301 0.05921697 1.00666e-4 0.3612689 9.995e-5 0.03945916 0.9993303 0.03945845 1.00666e-4 0.05921697 1.00666e-4 0.01752412 0.9993303 0.01752585 1.00618e-4 0.03945845 1.00666e-4 8.28625e-5 0.9993124 8.45808e-5 8.28625e-5 0.01752585 1.00618e-4 0.07604706 0.5079244 0.0605728 0.4879022 0.1026707 0.5168815 0.0605728 0.4879022 6.47009e-5 0.1058542 0.1889395 0.4879022 6.47009e-5 0.1058542 0.2494473 0.1058542 0.1889395 0.4879022 0.1889395 0.4879022 0.1734652 0.5079244 0.1468415 0.5168815 0.1468415 0.5168815 0.1231812 0.5215551 0.1026707 0.5168815 0.0605728 0.4879022 0.1889395 0.4879022 0.1026707 0.5168815 0.864049 0.04177165 0.7505545 0.04566603 0.7450461 0.04136765 0.8692496 0.03710597 0.7450461 0.04136765 0.7387181 0.03881919 0.2061815 0.005332291 0.2135229 0.0141108 0.1939942 0.001748085 0.2135229 0.0141108 0.2475188 0.1857045 0.1555141 0.01634597 0.2475188 0.1857045 0.1348229 0.1900469 0.1555141 0.01634597 0.1555141 0.01634597 0.1621583 0.007028579 0.1740335 0.002517223 0.1740335 0.002517223 0.1832208 4.81627e-5 0.1939942 0.001748085 0.2135229 0.0141108 0.1555141 0.01634597 0.1939942 0.001748085 -0.0668196 1.121065 -0.2561005 0.4945564 0.04697066 1.028593 -0.2561005 0.4945564 -0.2258497 0.1025001 0.04697066 1.028593 -0.2258497 0.1025001 1.213448 -0.04011791 2.008134 0.5519672 1.213448 -0.04011791 1.222461 0.1028159 1.398185 0.1829368 1.041193 0.03994005 1.213448 -0.04011791 1.398185 0.1829368 1.222461 0.1028159 1.372176 0.09345465 1.398185 0.1829368 0.2786841 0.4063762 0.04697066 1.028593 -0.2258497 0.1025001 1.213448 -0.04011791 1.041193 0.03994005 2.008134 0.5519672 0.846592 0.1587672 0.2786841 0.4063762 -0.2258497 0.1025001 1.030178 0.1634604 0.8479596 0.13256 0.8461927 0.163601 0.846592 0.1587672 -0.2258497 0.1025001 2.008134 0.5519672 1.030178 0.1634604 0.8461927 0.163601 1.037976 0.1698377 0.8461927 0.163601 0.846592 0.1587672 1.037976 0.1698377 0.9825346 8.32743e-5 0.9568039 0.01593172 0.02487093 0.01703798 0.9751291 0.6767046 0.9560759 0.6623215 0.9433009 0.03541028 0.9999167 0.6936593 0.9751291 0.6767046 0.9568039 0.01593172 0.01746523 0.6936596 0.04319614 0.6778111 0.9751291 0.6767046 8.32743e-5 8.32743e-5 0.02487093 0.01703798 0.04319614 0.6778111 0.04392415 0.03142118 0.07890802 0.05991417 0.09714382 0.6344531 0.9568039 0.01593172 0.9433009 0.03541028 0.04392415 0.03142118 0.04319614 0.6778111 0.05669897 0.6583325 0.9560759 0.6623215 0.02487093 0.01703798 0.04392415 0.03142118 0.05669897 0.6583325 0.09714382 0.6344531 0.1098557 0.6170378 0.9030323 0.6209294 0.9560759 0.6623215 0.9210919 0.6338284 0.902856 0.05928975 0.05669897 0.6583325 0.09714382 0.6344531 0.9210919 0.6338284 0.9433009 0.03541028 0.902856 0.05928975 0.07890802 0.05991417 0.1098557 0.6170378 0.09696775 0.07281321 0.8901441 0.07670503 0.902856 0.05928975 0.8901441 0.07670503 0.09696775 0.07281321 0.07890802 0.05991417 0.09696775 0.07281321 0.1098557 0.6170378 0.9210919 0.6338284 0.9030323 0.6209294 0.8901441 0.07670503 0.02144008 0.1423251 0.009100675 0.1169053 0.08286839 0.1586645 0.009100675 0.1169053 3.98261e-5 3.98261e-5 0.08286839 0.1586645 3.98261e-5 3.98261e-5 0.9999603 4.00055e-5 0.8754058 0.05118149 0.9999603 4.00055e-5 0.9974818 0.140716 0.8646635 0.2945694 0.8654698 0.09345006 0.9999603 4.00055e-5 0.8646635 0.2945694 0.9974818 0.140716 0.9878496 0.3449643 0.8646635 0.2945694 0.5418754 0.08535951 0.08286839 0.1586645 3.98261e-5 3.98261e-5 0.9999603 4.00055e-5 0.8654698 0.09345006 0.8754058 0.05118149 0.4215734 0.1918277 0.5418754 0.08535951 3.98261e-5 3.98261e-5</float_array>
          <technique_common>
            <accessor source="#Plane_001-mesh-map-0-array" count="372" stride="2">
              <param name="S" type="float"/>
              <param name="T" type="float"/>
            </accessor>
          </technique_common>
        </source>
        <vertices id="Plane_001-mesh-vertices">
          <input semantic="POSITION" source="#Plane_001-mesh-positions"/>
        </vertices>
        <triangles material="Material_001-material" count="124">
          <input semantic="VERTEX" source="#Plane_001-mesh-vertices" offset="0"/>
          <input semantic="NORMAL" source="#Plane_001-mesh-normals" offset="1"/>
          <input semantic="TEXCOORD" source="#Plane_001-mesh-map-0" offset="2" set="0"/>
          <p>1 0 0 2 1 1 0 2 2 2 1 3 4 3 4 0 2 5 5 4 6 6 5 7 4 3 8 7 6 9 8 7 10 6 5 11 9 8 12 10 9 13 8 7 14 11 10 15 12 11 16 10 9 17 13 12 18 14 13 19 12 11 20 15 14 21 16 15 22 14 13 23 17 16 24 18 17 25 16 15 26 19 18 27 20 19 28 18 17 29 21 20 30 22 21 31 20 19 32 23 22 33 24 23 34 22 21 35 28 24 36 27 25 37 26 26 38 30 27 39 28 24 40 26 26 41 32 28 42 31 29 43 30 27 44 34 30 45 33 31 46 32 28 47 36 32 48 35 33 49 34 30 50 38 34 51 37 35 52 36 32 53 40 36 54 39 37 55 38 34 56 42 38 57 41 36 58 40 36 59 44 39 60 43 40 61 42 38 62 46 41 63 45 42 64 44 39 65 48 43 66 47 44 67 46 41 68 24 23 69 49 45 70 48 43 71 18 17 72 22 21 73 48 43 74 14 13 75 38 34 76 12 11 77 12 11 78 36 32 79 10 9 80 45 42 81 49 45 82 23 22 83 11 10 84 37 35 85 39 37 86 29 46 87 54 47 88 27 25 89 52 48 90 55 49 91 51 50 92 3 51 93 51 50 94 29 46 95 1 0 96 52 48 97 3 51 98 27 25 99 50 52 100 1 0 101 53 53 102 61 50 103 57 54 104 51 50 105 53 53 106 54 47 107 50 52 108 56 55 109 52 48 110 54 47 111 57 54 112 50 52 113 61 50 114 64 53 115 60 47 116 56 55 117 59 52 118 55 49 119 57 54 120 60 47 121 56 55 122 55 49 123 58 48 124 53 53 125 65 49 126 63 54 127 64 53 128 59 52 129 62 55 130 58 48 131 58 48 132 65 49 133 61 50 134 60 47 135 63 54 136 59 52 137 73 56 138 71 56 139 77 56 140 1 0 141 3 51 142 2 1 143 2 1 144 5 4 145 4 3 146 5 4 147 7 6 148 6 5 149 7 6 150 9 8 151 8 7 152 9 8 153 11 10 154 10 9 155 11 10 156 13 12 157 12 11 158 13 12 159 15 14 160 14 13 161 15 14 162 17 16 163 16 15 164 17 16 165 19 18 166 18 17 167 19 18 168 21 20 169 20 19 170 21 20 171 23 22 172 22 21 173 23 22 174 25 57 175 24 23 176 28 24 177 29 46 178 27 25 179 30 27 180 31 29 181 28 24 182 32 28 183 33 31 184 31 29 185 34 30 186 35 33 187 33 31 188 36 32 189 37 35 190 35 33 191 38 34 192 39 37 193 37 35 194 40 36 195 41 36 196 39 37 197 42 38 198 43 40 199 41 36 200 44 39 201 45 42 202 43 40 203 46 41 204 47 44 205 45 42 206 48 43 207 49 45 208 47 44 209 24 23 210 25 57 211 49 45 212 46 41 213 44 39 214 48 43 215 44 39 216 42 38 217 18 17 218 42 38 219 16 15 220 18 17 221 18 17 222 20 19 223 22 21 224 22 21 225 24 23 226 48 43 227 44 39 228 18 17 229 48 43 230 14 13 231 42 38 232 38 34 233 12 11 234 38 34 235 36 32 236 21 20 237 19 18 238 23 22 239 19 18 240 17 16 241 45 42 242 17 16 243 43 40 244 45 42 245 45 42 246 47 44 247 49 45 248 49 45 249 25 57 250 23 22 251 19 18 252 45 42 253 23 22 254 5 4 255 2 1 256 7 6 257 2 1 258 3 51 259 7 6 260 3 51 261 29 46 262 37 35 263 29 46 264 28 24 265 33 31 266 35 33 267 29 46 268 33 31 269 28 24 270 31 29 271 33 31 272 9 8 273 7 6 274 3 51 275 29 46 276 35 33 277 37 35 278 11 10 279 9 8 280 3 51 281 43 40 282 17 16 283 13 12 284 11 10 285 3 51 286 37 35 287 43 40 288 13 12 289 39 37 290 13 12 291 11 10 292 39 37 293 29 46 294 51 50 295 54 47 296 52 48 297 56 55 298 55 49 299 3 51 300 52 48 301 51 50 302 1 0 303 50 52 304 52 48 305 27 25 306 54 47 307 50 52 308 53 53 309 58 48 310 61 50 311 51 50 312 55 49 313 53 53 314 50 52 315 57 54 316 56 55 317 54 47 318 53 53 319 57 54 320 61 50 321 65 49 322 64 53 323 56 55 324 60 47 325 59 52 326 57 54 327 61 50 328 60 47 329 55 49 330 59 52 331 58 48 332 65 49 333 62 55 334 63 54 335 59 52 336 63 54 337 62 55 338 58 48 339 62 55 340 65 49 341 60 47 342 64 53 343 63 54 344 74 56 345 72 56 346 75 56 347 72 56 348 73 56 349 75 56 350 73 56 351 67 56 352 71 56 353 67 56 354 66 56 355 69 56 356 70 56 357 67 56 358 69 56 359 66 56 360 68 56 361 69 56 362 76 56 363 75 56 364 73 56 365 67 56 366 70 56 367 71 56 368 77 56 369 76 56 370 73 56 371</p>
        </triangles>
      </mesh>
    </geometry>
    <geometry id="Cube-mesh" name="Cube">
      <mesh>
        <source id="Cube-mesh-positions">
          <float_array id="Cube-mesh-positions-array" count="24">-1.678069 -2.476238 0.1026121 -1.678069 -2.476238 1 -1.678069 2.49395 0.1026121 -1.678069 2.49395 1 1.671364 -2.476238 0.1026121 1.671364 -2.476238 1 1.671364 2.49395 0.1026121 1.671364 2.49395 1</float_array>
          <technique_common>
            <accessor source="#Cube-mesh-positions-array" count="8" stride="3">
              <param name="X" type="float"/>
              <param name="Y" type="float"/>
              <param name="Z" type="float"/>
            </accessor>
          </technique_common>
        </source>
        <source id="Cube-mesh-normals">
          <float_array id="Cube-mesh-normals-array" count="18">-1 0 0 0 1 0 1 0 0 0 -1 0 0 0 -1 0 0 1</float_array>
          <technique_common>
            <accessor source="#Cube-mesh-normals-array" count="6" stride="3">
              <param name="X" type="float"/>
              <param name="Y" type="float"/>
              <param name="Z" type="float"/>
            </accessor>
          </technique_common>
        </source>
        <source id="Cube-mesh-map-0">
          <float_array id="Cube-mesh-map-0-array" count="72">-0.01800888 4.25274e-5 0.9817811 0.1809155 -0.01807135 0.18057 0.1218054 0.03269249 0.8781946 0.2356258 0.1217355 0.2353647 0.9999575 0.1805815 4.24881e-5 4.24881e-5 0.9999575 4.27219e-5 0.8395055 0.2252458 0.1604946 0.04307246 0.8395683 0.04330676 0 0 0 0 0 0 0 0 0 0 0 0 -0.01800888 4.25274e-5 0.9818435 3.87751e-4 0.9817811 0.1809155 0.1218054 0.03269249 0.8782646 0.03295367 0.8781946 0.2356258 0.9999575 0.1805815 4.24881e-5 0.1805815 4.24881e-5 4.24881e-5 0.8395055 0.2252458 0.1604317 0.2250114 0.1604946 0.04307246 0 0 0 0 0 0 0 0 0 0 0 0</float_array>
          <technique_common>
            <accessor source="#Cube-mesh-map-0-array" count="36" stride="2">
              <param name="S" type="float"/>
              <param name="T" type="float"/>
            </accessor>
          </technique_common>
        </source>
        <vertices id="Cube-mesh-vertices">
          <input semantic="POSITION" source="#Cube-mesh-positions"/>
        </vertices>
        <triangles material="Material_002-material" count="12">
          <input semantic="VERTEX" source="#Cube-mesh-vertices" offset="0"/>
          <input semantic="NORMAL" source="#Cube-mesh-normals" offset="1"/>
          <input semantic="TEXCOORD" source="#Cube-mesh-map-0" offset="2" set="0"/>
          <p>1 0 0 2 0 1 0 0 2 3 1 3 6 1 4 2 1 5 7 2 6 4 2 7 6 2 8 5 3 9 0 3 10 4 3 11 6 4 12 0 4 13 2 4 14 3 5 15 5 5 16 7 5 17 1 0 18 3 0 19 2 0 20 3 1 21 7 1 22 6 1 23 7 2 24 5 2 25 4 2 26 5 3 27 1 3 28 0 3 29 6 4 30 4 4 31 0 4 32 3 5 33 1 5 34 5 5 35</p>
        </triangles>
      </mesh>
    </geometry>
  </library_geometries>
  <library_controllers/>
  <library_visual_scenes>
    <visual_scene id="Scene" name="Scene">
      <node id="Plane" name="Plane" type="NODE">
        <matrix sid="transform">1 0 0 0 0 1 0 0 0 0 1 0 0 0 0 1</matrix>
        <instance_geometry url="#Plane_001-mesh" name="Plane">
          <bind_material>
            <technique_common>
              <instance_material symbol="Material_001-material" target="#Material_001-material"/>
            </technique_common>
          </bind_material>
        </instance_geometry>
      </node>
      <node id="Point" name="Point" type="NODE">
        <matrix sid="transform">1 0 0 2.107834 0 1 0 -1.106066 0 0 1 1.860499 0 0 0 1</matrix>
        <instance_light url="#Point-light"/>
      </node>
      <node id="Point_001" name="Point_001" type="NODE">
        <matrix sid="transform">1 0 0 -2.220553 0 1 0 -1.106066 0 0 1 1.860499 0 0 0 1</matrix>
        <instance_light url="#Point_001-light"/>
      </node>
      <node id="Point_002" name="Point_002" type="NODE">
        <matrix sid="transform">1 0 0 -0.3788632 0 1 0 3.387129 0 0 1 -1.566898 0 0 0 1</matrix>
        <instance_light url="#Point_002-light"/>
      </node>
      <node id="Point_003" name="Point_003" type="NODE">
        <matrix sid="transform">1 0 0 -0.3788632 0 1 0 -6.721032 0 0 1 -1.566898 0 0 0 1</matrix>
        <instance_light url="#Point_003-light"/>
      </node>
      <node id="Point_004" name="Point_004" type="NODE">
        <matrix sid="transform">1 0 0 -0.3788632 0 1 0 -1.677786 0 0 1 4.603781 0 0 0 1</matrix>
        <instance_light url="#Point_004-light"/>
      </node>
      <node id="Cube" name="Cube" type="NODE">
        <matrix sid="transform">1 0 0 0 0 1 0 -1.817825 0 0 1 -0.719735 0 0 0 1</matrix>
        <instance_geometry url="#Cube-mesh" name="Cube">
          <bind_material>
            <technique_common>
              <instance_material symbol="Material_002-material" target="#Material_002-material"/>
            </technique_common>
          </bind_material>
        </instance_geometry>
      </node>
    </visual_scene>
  </library_visual_scenes>
  <scene>
    <instance_visual_scene url="#Scene"/>
  </scene>
</COLLADA>